<?xml version="1.0" standalone="no"?><!DOCTYPE svg PUBLIC "-//W3C//DTD SVG 1.1//EN" "http://www.w3.org/Graphics/SVG/1.1/DTD/svg11.dtd"><svg t="1567911123106" class="icon" viewBox="0 0 1024 1024" version="1.1" xmlns="http://www.w3.org/2000/svg" p-id="7089" xmlns:xlink="http://www.w3.org/1999/xlink" width="32" height="32"><defs><style type="text/css"></style></defs><path d="M535.272727 162.909091 488.727273 162.909091 488.727273 488.727273 256 488.727273 256 535.272727 535.272727 535.272727ZM1024 512c0-282.763636-229.236364-512-512-512C229.236364 0 0 229.236364 0 512c0 282.763636 229.236364 512 512 512C794.763636 1024 1024 794.763636 1024 512zM46.545455 512C46.545455 254.929455 254.929455 46.545455 512 46.545455c257.070545 0 465.454545 208.384 465.454545 465.454545s-208.384 465.454545-465.454545 465.454545C254.929455 977.454545 46.545455 769.070545 46.545455 512z" p-id="7090" fill="#949497"></path></svg>