<svg xmlns="http://www.w3.org/2000/svg" xmlns:xlink="http://www.w3.org/1999/xlink" viewBox="0 0 680.19 133.17"><defs><style>.cls-1{isolation:isolate;}.cls-2,.cls-5,.cls-6,.cls-7{fill-rule:evenodd;}.cls-2{fill:url(#未命名的渐变_43);}.cls-3{fill:url(#未命名的渐变_43-2);}.cls-4{fill:url(#未命名的渐变_43-3);}.cls-5{fill:url(#未命名的渐变_48);}.cls-6{fill:url(#未命名的渐变_48-2);}.cls-7{fill:url(#未命名的渐变_48-3);}.cls-8{fill:url(#未命名的渐变_26);}.cls-9{mix-blend-mode:multiply;fill:url(#未命名的渐变_26-2);}.cls-10{fill:url(#未命名的渐变_48-4);}</style><linearGradient id="未命名的渐变_43" x1="472.9" y1="11.27" x2="472.9" y2="121.06" gradientUnits="userSpaceOnUse"><stop offset="0" stop-color="#00d2ff"/><stop offset="1" stop-color="#0af"/></linearGradient><linearGradient id="未命名的渐变_43-2" x1="382.87" y1="11.27" x2="382.87" y2="121.06" xlink:href="#未命名的渐变_43"/><linearGradient id="未命名的渐变_43-3" x1="332.71" y1="11.24" x2="332.71" y2="121.03" xlink:href="#未命名的渐变_43"/><linearGradient id="未命名的渐变_48" x1="258.76" y1="11.36" x2="258.76" y2="122.28" gradientUnits="userSpaceOnUse"><stop offset="0" stop-color="#ff4b7d"/><stop offset="1" stop-color="#ff2d64"/></linearGradient><linearGradient id="未命名的渐变_48-2" x1="154" y1="11.36" x2="154" y2="122.28" xlink:href="#未命名的渐变_48"/><linearGradient id="未命名的渐变_48-3" x1="52.35" y1="11.36" x2="52.35" y2="122.3" xlink:href="#未命名的渐变_48"/><linearGradient id="未命名的渐变_26" x1="565.91" y1="99.88" x2="663" y2="99.88" gradientUnits="userSpaceOnUse"><stop offset="0" stop-color="#00d2ff"/><stop offset="1" stop-color="#0af"/></linearGradient><linearGradient id="未命名的渐变_26-2" x1="595.28" y1="67.62" x2="663.27" y2="90.96" xlink:href="#未命名的渐变_26"/><linearGradient id="未命名的渐变_48-4" x1="566.59" y1="48.45" x2="679.81" y2="48.45" xlink:href="#未命名的渐变_48"/></defs><title>横版logo</title><g class="cls-1"><g id="图层_2" data-name="图层 2"><g id="图层_1-2" data-name="图层 1"><path class="cls-2" d="M472.9,122.07a49.3,49.3,0,0,1-49.3-49.3V23.48a12.33,12.33,0,1,1,24.65,0V72.77a24.65,24.65,0,0,0,49.3,0V23.48a12.33,12.33,0,1,1,24.65,0V72.77a49.3,49.3,0,0,1-49.3,49.3Z"/><path class="cls-3" d="M411.91,100.86,377.56,66.51l34-34c4.56-4.55,5.29-11.94,1.19-16.91a12.32,12.32,0,0,0-18.24-.89l-39,39a18.08,18.08,0,0,0,0,25.57l39,39a12.21,12.21,0,0,0,3.06,2.28,12.33,12.33,0,0,0,14.37-19.71Z"/><path class="cls-4" d="M345,23.45a12.33,12.33,0,1,0-24.65,0v86.27a12.33,12.33,0,0,0,24.65,0Z"/><path class="cls-5" d="M258.76,122a49.29,49.29,0,0,1-49.3-49.29V23.45a12.33,12.33,0,1,1,24.65,0v49.3a24.65,24.65,0,0,0,49.3,0V23.45a12.33,12.33,0,1,1,24.65,0v49.3A49.29,49.29,0,0,1,258.76,122Z"/><path class="cls-6" d="M154,11.12a49.3,49.3,0,0,0-49.3,49.3V72.75a49.3,49.3,0,0,0,98.6,0V60.42A49.3,49.3,0,0,0,154,11.12Zm24.65,61.63a24.65,24.65,0,0,1-49.3,0V60.42a24.65,24.65,0,1,1,49.3,0Z"/><path class="cls-7" d="M64.75,68.63v41.09a12.33,12.33,0,0,1-24.65,0v-41L3.65,32.21A12.34,12.34,0,1,1,21.08,14.74L52.37,46.11,83.65,14.74a12.34,12.34,0,1,1,17.43,17.47L64.75,68.63Z"/><path class="cls-8" d="M579.72,84.16A26.26,26.26,0,0,0,606,129.65l56.7-32.74L610.16,66.58Z"/><polygon class="cls-9" points="662.68 96.91 610.16 66.58 601.01 71.87 662.68 96.91"/><path class="cls-10" d="M662.68,36.26,606,3.52A26.26,26.26,0,0,0,579.72,49l30.44,17.58,52.52,30.32h0C686,83.43,686,49.74,662.68,36.26Z"/></g></g></g></svg>