<?xml version="1.0" standalone="no"?><!DOCTYPE svg PUBLIC "-//W3C//DTD SVG 1.1//EN" "http://www.w3.org/Graphics/SVG/1.1/DTD/svg11.dtd"><svg t="1568187715040" class="icon" viewBox="0 0 1024 1024" version="1.1" xmlns="http://www.w3.org/2000/svg" p-id="1890" xmlns:xlink="http://www.w3.org/1999/xlink" width="32" height="32"><defs><style type="text/css"></style></defs><path d="M236.144744 613.830223l-77.391725-278.248212L62.277897 335.582011l116.19504 389.152091 97.400228 0 116.860216-389.152091-75.975412 0L236.144744 613.830223zM456.617934 724.734102l90.40769 0L547.025625 335.580988 456.617934 335.580988 456.617934 724.734102zM932.567938 385.752668c-14.173372-18.808368-30.280871-31.868825-48.325569-39.192627-18.043674-7.310499-44.0623-10.979052-78.070205-10.979052L653.70148 335.580988l0 389.152091 92.098261 0L745.799742 580.184939l63.767892 0c27.593559 0 47.848688-1.704828 60.791995-5.128811 12.94433-3.423983 26.308234-10.357905 40.10399-20.802792 13.796779-10.459213 24.47337-24.803919 32.02875-43.049468 7.556403-18.24555 11.326417-36.96796 11.326417-56.167231C953.819809 427.66115 946.740286 404.576385 932.567938 385.752668zM848.96449 493.810732c-9.071981 10.459213-24.847916 15.673981-47.327804 15.673981l-58.942805 0L742.69388 406.281213l58.653198 0c20.601021 0 35.943056 4.666276 46.056806 13.969153 10.112726 9.317203 15.168066 21.856797 15.168066 37.632085C862.572973 471.390094 858.036471 483.35152 848.96449 493.810732z" p-id="1891" fill="#ffce1c"></path></svg>