<?xml version="1.0" standalone="no"?><!DOCTYPE svg PUBLIC "-//W3C//DTD SVG 1.1//EN" "http://www.w3.org/Graphics/SVG/1.1/DTD/svg11.dtd"><svg t="1567911244569" class="icon" viewBox="0 0 1024 1024" version="1.1" xmlns="http://www.w3.org/2000/svg" p-id="11937" id="mx_n_1567911244571" data-spm-anchor-id="a313x.7781069.0.i9" xmlns:xlink="http://www.w3.org/1999/xlink" width="32" height="32"><defs><style type="text/css"></style></defs><path d="M337.859 96.279h352.447c36.47 0 66.141 29.671 66.141 66.145v318.938h132.334c34.655 0 62.85 28.192 62.85 62.846 0 14.153-8.251 30.096-11.798 36.296l-1.713 2.993-380.109 370.407c-7.134 4.956-25.582 16.485-42.723 16.485-0.419 0-0.821-0.011-1.199-0.028-0.381 0.016-0.781 0.028-1.199 0.028-17.136 0-35.586-11.53-42.722-16.483l-1.691-1.177-377.76-369.039c-9.27-11.424-14.171-25.078-14.17-39.482 0-34.655 28.192-62.846 62.847-62.846h132.329v-318.938c0-36.474 29.673-66.146 66.141-66.145zM902.262 543.675c-0.278-7.193-6.217-12.956-13.481-12.956h-181.693v-368.297c0-9.255-7.527-16.786-16.782-16.786h-352.447c-9.253 0-16.781 7.531-16.78 16.786v368.297h-181.691c-7.437 0-13.488 6.049-13.487 13.486 0 2.653 0.831 5.168 2.468 7.493l371.472 362.673c4.577 2.935 10.338 5.81 13.173 6.557 0.034-0.001 0.071-0.002 0.11-0.004l0.966-0.037 0.969 0.037c0.034 0.001 0.069 0.002 0.101 0.004 2.832-0.746 8.575-3.613 13.181-6.565l370.105-361.118c1.796-3.602 3.427-7.635 3.818-9.569z" p-id="11938" fill="#35b5ff"></path></svg>